<?xml version="1.0" encoding="iso-8859-1"?>
<!-- Generator: Adobe Illustrator 16.0.0, SVG Export Plug-In . SVG Version: 6.00 Build 0)  -->
<!DOCTYPE svg PUBLIC "-//W3C//DTD SVG 1.1//EN" "http://www.w3.org/Graphics/SVG/1.1/DTD/svg11.dtd">
<svg version="1.1" id="Capa_1" xmlns="http://www.w3.org/2000/svg" xmlns:xlink="http://www.w3.org/1999/xlink" x="0px" y="0px"
	 width="50.281px" height="50.281px" viewBox="0 0 50.281 50.281" style="enable-background:new 0 0 50.281 50.281;"
	 xml:space="preserve">
<g>
	<path d="M17.826,49.193l-0.451-0.141c-0.749-0.242-1.354-0.77-1.705-1.481c-0.786-1.595-0.268-3.386,2.724-11.815
		c0.278-0.783,0.595-1.676,0.91-2.58c-0.785,0.596-1.558,1.189-2.236,1.711c-6.574,5.047-8.274,6.228-9.89,6.229
		c-0.001,0-0.002,0-0.002,0c-0.956,0-1.818-0.434-2.369-1.188c-0.461-0.635-0.642-1.414-0.508-2.195
		c0.299-1.743,1.637-2.786,9.022-7.861c0.723-0.497,1.548-1.064,2.378-1.643c-0.859,0.021-1.747,0.043-2.62,0.066
		c-2.069,0.055-4.209,0.112-5.993,0.112c-1.51,0-2.592-0.04-3.405-0.124C0.478,27.95,0,26.172,0,25.141
		c0-3.266,3.604-3.266,7.088-3.266c1.783,0,3.922,0.057,5.99,0.112c0.875,0.023,1.762,0.047,2.623,0.066
		c-0.831-0.578-1.657-1.146-2.38-1.643c-7.384-5.075-8.722-6.117-9.021-7.861c-0.134-0.782,0.046-1.562,0.508-2.195
		c0.549-0.755,1.413-1.188,2.369-1.188c1.616,0,3.316,1.18,9.888,6.226c0.679,0.522,1.454,1.116,2.24,1.713
		c-0.316-0.906-0.633-1.798-0.912-2.583C15.402,6.095,14.884,4.304,15.67,2.71c0.351-0.713,0.956-1.239,1.702-1.482l0.414-0.134
		l0.472-0.006c2.67,0,3.243,1.937,5.994,11.24c0.267,0.903,0.574,1.943,0.889,2.983c0.315-1.041,0.623-2.081,0.89-2.984
		c2.751-9.303,3.322-11.239,5.992-11.239h0.435l0.449,0.139c0.748,0.244,1.354,0.77,1.705,1.483
		c0.784,1.595,0.269,3.385-2.724,11.814c-0.278,0.784-0.596,1.675-0.912,2.58c0.785-0.595,1.557-1.187,2.232-1.707
		c6.577-5.05,8.278-6.23,9.896-6.23c0.955,0,1.818,0.433,2.369,1.188c0.461,0.634,0.642,1.414,0.508,2.195
		c-0.299,1.743-1.637,2.786-9.021,7.861c-0.724,0.497-1.549,1.064-2.379,1.641c0.86-0.019,1.747-0.042,2.621-0.066
		c2.068-0.055,4.207-0.112,5.99-0.112c3.484,0,7.088,0,7.088,3.267c0,3.266-3.604,3.266-7.089,3.266
		c-1.784,0-3.925-0.057-5.993-0.112c-0.873-0.022-1.76-0.047-2.618-0.065c0.831,0.578,1.657,1.146,2.381,1.644
		c7.384,5.075,8.722,6.117,9.021,7.86c0.134,0.781-0.047,1.562-0.508,2.193c-0.551,0.758-1.414,1.189-2.369,1.189
		c-1.615,0-3.316-1.18-9.891-6.229c-0.679-0.521-1.451-1.115-2.236-1.711c0.315,0.905,0.633,1.799,0.91,2.582
		c2.992,8.428,3.51,10.219,2.725,11.812c-0.352,0.714-0.956,1.238-1.703,1.482l-0.413,0.133l-0.471,0.007c-0.001,0-0.001,0-0.003,0
		c-2.67,0-3.241-1.937-5.992-11.24c-0.267-0.903-0.574-1.942-0.889-2.981c-0.315,1.041-0.623,2.08-0.89,2.984
		c-2.75,9.299-3.322,11.232-5.988,11.237L17.826,49.193z"/>
</g>
<g>
</g>
<g>
</g>
<g>
</g>
<g>
</g>
<g>
</g>
<g>
</g>
<g>
</g>
<g>
</g>
<g>
</g>
<g>
</g>
<g>
</g>
<g>
</g>
<g>
</g>
<g>
</g>
<g>
</g>
</svg>
